<?xml version="1.0" encoding="UTF-8"?>
<svg id="Layer_1" xmlns="http://www.w3.org/2000/svg" version="1.1" viewBox="0 0 300 100.996">
  <!-- Generator: Adobe Illustrator 30.5.1, SVG Export Plug-In . SVG Version: 2.1.4 Build 3)  -->
  <path d="M48.854,100.996c-6.387,0-12.521-1.142-18.406-3.421-5.885-2.28-11.108-5.564-15.669-9.854-4.564-4.287-8.167-9.488-10.812-15.601-2.647-6.112-3.968-13.002-3.968-20.664s1.321-14.551,3.968-20.664c2.645-6.112,6.248-11.312,10.812-15.601,4.561-4.288,9.784-7.573,15.669-9.854,5.885-2.279,12.019-3.421,18.406-3.421,6.477,0,12.659,1.142,18.544,3.421,5.885,2.281,11.106,5.565,15.669,9.854,4.562,4.288,8.165,9.489,10.812,15.601,2.645,6.113,3.968,13.001,3.968,20.664s-1.323,14.552-3.968,20.664c-2.647,6.113-6.25,11.313-10.812,15.601-4.563,4.289-9.784,7.574-15.669,9.854-5.885,2.279-12.066,3.421-18.544,3.421ZM48.854,85.12c5.108,0,10.035-1.209,14.781-3.626,4.742-2.417,8.621-6.135,11.632-11.153,3.011-5.017,4.516-11.312,4.516-18.885,0-7.664-1.505-14.003-4.516-19.022-3.01-5.017-6.889-8.736-11.632-11.153-4.745-2.417-9.672-3.627-14.781-3.627-5.018,0-9.9,1.211-14.643,3.627-4.744,2.418-8.621,6.137-11.632,11.153-3.011,5.019-4.516,11.358-4.516,19.022,0,7.573,1.505,13.869,4.516,18.885,3.01,5.019,6.887,8.737,11.632,11.153,4.743,2.418,9.625,3.626,14.643,3.626Z"/>
  <path d="M106.482,99.353V31.475h17.38v10.127c2.372-3.831,5.383-6.751,9.033-8.758,3.648-2.005,7.709-3.011,12.179-3.011v18.339h-4.652c-5.566,0-9.717,1.324-12.454,3.968-2.737,2.648-4.106,7.072-4.106,13.275v33.939h-17.38Z"/>
  <path d="M193.518,100.996c-4.563,0-8.827-.889-12.796-2.668-3.969-1.78-7.276-4.538-9.921-8.281v9.307h-17.517V3.558h17.38v37.497c2.553-3.74,5.838-6.546,9.854-8.416,4.014-1.87,8.348-2.806,13.001-2.806,6.477,0,12.064,1.575,16.765,4.722,4.697,3.147,8.324,7.39,10.879,12.727,2.553,5.337,3.832,11.29,3.832,17.859,0,6.479-1.279,12.453-3.832,17.926-2.555,5.475-6.182,9.832-10.879,13.07-4.7,3.237-10.287,4.859-16.765,4.859ZM188.865,85.668c3.648,0,6.843-.912,9.579-2.738,2.737-1.824,4.879-4.311,6.431-7.459,1.55-3.147,2.327-6.59,2.327-10.331,0-4.288-.845-7.914-2.532-10.88-1.689-2.964-3.924-5.222-6.706-6.774-2.784-1.549-5.816-2.327-9.1-2.327-3.559,0-6.684.869-9.374,2.601-2.692,1.734-4.814,4.129-6.364,7.184-1.553,3.057-2.326,6.548-2.326,10.469,0,4.015.797,7.55,2.394,10.607,1.595,3.057,3.764,5.429,6.501,7.116,2.737,1.689,5.793,2.532,9.169,2.532Z"/>
  <path d="M240.745,22.717c-3.102,0-5.771-1.116-8.005-3.352-2.237-2.235-3.353-4.904-3.353-8.006,0-3.192,1.116-5.885,3.353-8.074,2.234-2.19,4.903-3.285,8.005-3.285,3.193,0,5.885,1.095,8.075,3.285s3.284,4.882,3.284,8.074c0,3.102-1.095,5.771-3.284,8.006-2.19,2.236-4.882,3.352-8.075,3.352ZM231.987,99.353V31.475h17.516v67.878h-17.516Z"/>
  <path d="M289.052,99.353c-7.3,0-12.796-1.779-16.49-5.337-3.695-3.559-5.542-8.896-5.542-16.013v-31.885h-8.759v-14.644h8.759V14.916h17.516v16.559h15.464v14.644h-15.464v32.023c0,2.555.684,4.289,2.052,5.2,1.369.913,3.148,1.368,5.338,1.368h8.074v14.644h-10.948Z"/>
</svg>