<svg width="257" height="250" viewBox="0 0 257 250" fill="none" xmlns="http://www.w3.org/2000/svg">
<path fill-rule="evenodd" clip-rule="evenodd" d="M105.959 6.42978C129.692 5.37152 142.326 13.0233 153.903 21.1702C139.226 37.8421 137.644 60.4044 143.671 77.3493C156.987 114.777 206.023 128.62 236.992 99.0236C245.787 90.6174 250.558 79.8004 252.61 72.4027C257.498 86.2211 257.822 101.298 253.452 115.384C251.396 122.238 248.46 127.892 245.534 133.52C242.394 139.565 239.269 145.581 237.267 153.024C234.85 162.008 236.736 169.94 238.718 178.278C241.522 190.069 244.518 202.667 235.808 220.187C228.281 235.329 209.646 242.252 192.855 242.7C176.904 243.125 160.838 234.696 148.599 228.274C144.336 226.037 140.538 224.044 137.37 222.754C122.672 216.767 112.943 224.756 102.511 233.323L102.51 233.324H102.509L102.507 233.327H102.506L102.505 233.328H102.504L102.503 233.33C100.989 234.573 99.4605 235.829 97.8997 237.054C89.2975 243.814 42.111 269.812 11.5672 219.942C4.48648 208.394 -7.58656 178.098 6.57223 148.257C13.3253 134.025 21.5416 127.02 28.8489 120.79C37.384 113.513 44.6791 107.294 46.9548 91.8497C47.8264 85.9332 47.5886 79.9394 47.3466 73.838C46.8662 61.7267 46.3692 49.1914 54.4972 35.9948C59.988 27.2199 67.5553 19.9325 76.5307 14.7762C85.5061 9.61983 95.6131 6.75324 105.959 6.42978ZM80.8159 98.5662C83.0465 97.4917 86.5605 95.7992 87.5101 95.4056C87.6154 95.3731 87.7286 95.3756 87.8324 95.4129C87.9361 95.4501 88.025 95.5201 88.0856 95.6121C88.1461 95.7042 88.1753 95.8136 88.1684 95.9236C88.1615 96.0336 88.119 96.1385 88.0474 96.2223C87.4683 96.8028 81.2718 100.26 80.3268 100.783C80.5557 101.074 81.2754 101.573 82.0907 102.139C82.7799 102.618 83.5374 103.144 84.1243 103.631C85.6689 104.909 85.6859 105.108 85.7187 105.495C85.7215 105.527 85.7244 105.56 85.7281 105.595C85.7342 105.644 85.7296 105.694 85.7146 105.741C85.6995 105.788 85.6744 105.831 85.6411 105.868C85.6077 105.904 85.5668 105.933 85.5212 105.952C85.4756 105.971 85.4264 105.979 85.3771 105.977C85.2104 105.97 85.0459 105.935 84.8898 105.876C83.7002 105.178 82.5911 104.4 81.6559 103.744C80.4631 102.907 79.5528 102.268 79.1185 102.247C78.8352 104.447 78.6663 106.661 78.6123 108.879C78.5596 109.73 78.511 110.264 78.187 110.499C78.0474 110.616 77.8745 110.685 77.6929 110.698C77.0841 110.698 77.0463 109.848 77.0314 109.242C76.9801 107.137 77.2704 103.346 77.35 102.357C77.1462 102.446 76.8181 102.609 76.2781 102.897C74.2816 103.953 73.166 104.603 72.5056 104.988L72.5048 104.989C71.5728 105.532 71.5479 105.546 71.2318 105.429C71.1271 105.394 71.035 105.329 70.9668 105.242C70.8987 105.156 70.8575 105.051 70.8484 104.941C70.761 103.885 73.7165 102.312 75.7612 101.223C76.1145 101.035 76.4411 100.861 76.7196 100.707L75.7327 100.016C71.1087 96.7766 70.4843 96.3394 70.5084 95.9411C70.5122 95.879 70.5317 95.8179 70.5543 95.7471L70.5568 95.739C71.0068 94.3263 73.504 96.1964 75.5436 97.7237C76.3863 98.3548 77.1509 98.9275 77.6605 99.1856C77.6524 98.7171 77.7132 97.3833 78.0763 93.3522C78.2629 91.2793 78.2398 89.6885 78.2228 88.5133C78.1958 86.644 78.1839 85.8263 79.0551 85.7922C79.2496 85.8079 79.4347 85.883 79.5851 86.0073C79.7356 86.1318 79.8442 86.2993 79.8961 86.4875C79.9423 90.7542 79.7621 95.0203 79.3561 99.2679C79.6917 99.1076 80.1966 98.8644 80.7956 98.5759L80.8052 98.5713L80.8135 98.5673L80.8159 98.5662ZM224.815 141.572C224.892 141.488 224.937 141.381 224.947 141.268C224.956 141.154 224.928 141.042 224.866 140.946C224.805 140.851 224.713 140.779 224.605 140.741C224.499 140.703 224.383 140.703 224.275 140.739C223.2 141.183 218.873 143.273 216.802 144.272L216.8 144.273L216.121 144.601C216.527 140.352 216.706 136.086 216.661 131.819C216.608 131.631 216.499 131.464 216.349 131.34C216.199 131.216 216.014 131.141 215.82 131.125C214.949 131.159 214.961 131.977 214.989 133.843C215.005 135.019 215.03 136.61 214.842 138.685C214.479 142.714 214.42 144.049 214.428 144.517C213.917 144.261 213.151 143.686 212.305 143.052C210.268 141.526 207.774 139.656 207.323 141.072L207.319 141.083C207.297 141.153 207.277 141.214 207.274 141.276C207.248 141.674 207.876 142.113 212.566 145.395L213.485 146.039C213.232 146.179 212.932 146.337 212.604 146.511C210.586 147.583 207.525 149.208 207.614 150.274C207.636 150.39 207.688 150.499 207.767 150.588C207.844 150.677 207.945 150.743 208.057 150.781C208.169 150.819 208.289 150.826 208.405 150.8C208.521 150.776 208.628 150.72 208.716 150.641C209.055 150.371 213.576 147.922 214.251 147.599C214.245 147.664 214.239 147.742 214.231 147.83L214.229 147.84C214.074 149.577 213.554 155.37 214.819 155.37C215.181 155.37 215.197 155.151 215.312 153.562V153.561V153.56H215.313C215.377 152.677 215.471 151.374 215.672 149.453C215.733 148.876 215.791 147.518 215.791 147.518C216.033 147.638 216.283 147.804 216.657 148.052C217.151 148.378 217.858 148.848 219.046 149.543C219.284 149.631 219.627 149.72 219.798 149.535C219.905 149.42 219.894 149.323 219.882 149.214C219.879 149.194 219.876 149.173 219.875 149.153C219.841 148.695 219.697 148.469 218.281 147.296C217.819 146.913 217.488 146.661 217.21 146.448C217.103 146.367 217.003 146.29 216.908 146.216C217.519 145.906 224.221 142.166 224.815 141.572ZM110.387 31.0063C110.411 31.0547 110.426 31.1076 110.429 31.1616C110.449 31.9973 103.544 38.9471 100.596 41.5243C100.964 41.9718 103.237 44.0319 105.219 45.8287L105.23 45.8383C105.565 46.1417 105.891 46.4373 106.198 46.7164C108.189 48.5227 108.15 48.6874 108.096 48.9128C108.078 48.9758 108.045 49.0335 108 49.0806C107.955 49.1277 107.898 49.1628 107.836 49.1828C107.084 49.3948 101.128 44.6468 99.3307 42.8378C99.0294 44.1604 98.5625 49.1343 98.2482 52.4823C98.0809 54.2639 97.9568 55.5856 97.924 55.6508C97.901 55.6975 97.8675 55.7381 97.8259 55.7697C97.7844 55.8012 97.7363 55.8226 97.6851 55.8324C97.6338 55.8421 97.5811 55.8398 97.5309 55.8255C97.4808 55.8113 97.4347 55.7856 97.3962 55.7505C96.3526 54.8053 96.8801 49.987 97.2567 46.5473L97.2571 46.5438C97.3616 45.5888 97.4545 44.7404 97.4988 44.1109C97.2214 44.3197 96.8188 44.6506 96.0878 45.2515C95.7266 45.5482 95.2853 45.9109 94.7394 46.3572C93.6364 47.2636 93.5743 47.3959 93.4194 47.7264C93.386 47.7976 93.3482 47.878 93.2949 47.9772C92.7036 49.1099 91.2982 47.972 91.9449 46.6382C92.3402 45.8244 92.5505 45.6523 95.521 43.2209C96.03 42.8045 96.6199 42.3216 97.3057 41.7578C97.4745 41.6188 97.6365 41.4851 97.7323 41.396C97.5906 41.2731 90.4815 34.5569 90.4356 34.3652C90.2749 33.7658 90.4828 33.5201 90.6799 33.4202C91.8639 32.8154 97.2342 38.2709 98.1265 39.251C98.1387 39.1159 98.1495 38.9511 98.1589 38.7972C98.1919 38.2609 98.3074 37.2063 98.4651 35.7661L98.4655 35.7626C98.6242 34.3143 98.8254 32.4765 99.0283 30.384L99.0287 30.3807C99.324 27.3533 99.3418 27.171 99.9828 27.0698C101.055 26.8934 100.609 31.0446 100.076 35.9982C99.9401 37.2556 99.7993 38.5648 99.6763 39.8678C104.426 35.9107 106.857 33.4985 108.209 32.1565C109.579 30.7969 109.842 30.5358 110.287 30.8795C110.329 30.9147 110.363 30.9578 110.387 31.0063ZM163.904 152.825C162.423 153.626 162.345 153.659 162.077 153.771C161.89 153.851 161.608 153.971 160.676 154.426C160.113 154.702 159.38 155.078 158.727 155.412C157.995 155.787 157.365 156.11 157.19 156.181C157.234 155.46 157.47 150.947 157.355 150.548C157.429 150.243 157.473 149.931 157.481 149.616C157.485 149.397 157.405 149.184 157.258 149.022C157.111 148.86 156.907 148.76 156.688 148.743C155.711 148.679 155.673 149.823 155.677 150.797C155.682 151.983 155.634 152.664 155.589 153.308C155.545 153.939 155.503 154.532 155.516 155.522C155.448 155.486 155.369 155.444 155.283 155.398L155.144 155.324L155.141 155.323C153.765 154.583 150.775 152.978 149.8 153.593C149.699 153.669 149.62 153.771 149.572 153.889C149.524 154.006 149.51 154.135 149.53 154.26C149.551 154.386 149.605 154.503 149.687 154.599C149.768 154.696 149.876 154.768 149.996 154.808C153.211 156.296 154.096 156.724 154.543 156.94C154.802 157.065 154.913 157.119 155.248 157.268C155.068 157.387 154.864 157.512 154.617 157.665C154.072 158.001 153.312 158.468 152.129 159.293C150.677 160.314 151.589 162.075 152.371 161.354C153.313 160.55 154.345 159.857 155.446 159.29C155.491 164.216 155.979 164.657 156.167 164.825C156.216 164.873 156.272 164.91 156.336 164.935C156.399 164.959 156.467 164.97 156.534 164.966C156.603 164.963 156.669 164.945 156.73 164.916C156.791 164.886 156.845 164.843 156.888 164.792C157.057 164.578 157.024 164.315 156.926 163.521C156.914 163.425 156.901 163.323 156.888 163.212C156.938 163.022 156.976 161.958 157.014 160.867C157.057 159.643 157.101 158.383 157.166 158.289C157.24 158.295 157.312 158.318 157.375 158.357C158.624 158.973 159.569 159.448 160.29 159.811C162.117 160.729 162.49 160.917 162.658 160.802C162.701 160.774 162.729 160.724 162.767 160.661L162.789 160.624C163.346 159.648 160.908 158.36 159.419 157.572C159.217 157.465 159.032 157.367 158.874 157.28C160.692 156.3 162.453 155.219 164.15 154.04C165.145 153.192 164.343 152.585 163.904 152.825ZM199.842 191.611C199.867 191.659 199.881 191.713 199.884 191.767C199.912 192.603 193.014 199.545 190.053 202.133C190.406 202.555 192.605 204.549 194.734 206.478L194.735 206.48L194.739 206.484C195.047 206.763 195.354 207.041 195.653 207.313C197.643 209.119 197.604 209.282 197.55 209.509C197.532 209.572 197.5 209.63 197.454 209.676C197.408 209.724 197.352 209.759 197.289 209.779C196.544 209.977 190.583 205.244 188.784 203.434C188.478 204.768 187.999 209.873 187.684 213.224V213.227C187.524 214.937 187.406 216.189 187.376 216.248C187.353 216.294 187.32 216.335 187.278 216.366C187.236 216.397 187.189 216.418 187.137 216.428C185.656 216.659 186.377 210.083 186.768 206.517L186.769 206.516V206.508C186.854 205.729 186.924 205.094 186.951 204.707C186.646 204.938 186.12 205.37 185.388 205.972L185.385 205.975L184.892 206.38C184.674 206.559 184.44 206.751 184.192 206.953C183.087 207.857 183.028 207.983 182.87 208.321C182.838 208.391 182.8 208.469 182.749 208.567C182.156 209.699 180.749 208.563 181.399 207.227C181.805 206.393 181.855 206.351 185.527 203.354L186.09 202.895L186.799 202.316L186.838 202.284C186.92 202.216 187.001 202.15 187.069 202.092C187.114 202.053 187.155 202.018 187.189 201.987C187.054 201.879 179.937 195.148 179.891 194.953C179.73 194.355 179.938 194.108 180.135 194.008C181.323 193.405 186.664 198.845 187.582 199.84C187.762 197.767 187.883 196.672 188.03 195.318C188.147 194.24 188.284 193 188.482 190.971C188.779 187.941 188.798 187.76 189.438 187.658C190.511 187.49 190.064 191.643 189.531 196.592C189.396 197.849 189.254 199.157 189.131 200.459C189.214 200.376 189.469 200.162 189.867 199.828C191.26 198.66 194.396 196.031 197.964 192.473L197.966 192.472C198.986 191.453 199.296 191.144 199.741 191.485C199.783 191.52 199.818 191.562 199.842 191.611ZM54.612 159.232C54.9217 159.212 55.241 159.053 55.67 158.839C57.0234 158.166 59.4701 156.949 66.1612 157.801C66.7577 157.824 67.1791 157.902 67.5102 157.965C68.1734 158.089 68.4734 158.144 69.0894 157.549C69.948 156.739 75.8704 148.909 75.9541 148.789C76.4522 148.1 77.2408 147.227 78.0391 146.341C79.8224 144.363 81.6536 142.334 80.3983 142.211C77.9696 141.798 75.4885 141.798 73.0597 142.211C71.0813 142.549 69.1484 143.115 67.2993 143.895C62.9354 146.129 59.1993 149.419 56.4304 153.465C55.4854 154.97 54.6673 156.544 53.8789 158.136C53.8171 158.256 53.7886 158.39 53.7962 158.525C53.8037 158.658 53.8472 158.788 53.9221 158.9C53.9969 159.012 54.1005 159.103 54.2217 159.161C54.3431 159.219 54.4778 159.243 54.612 159.232ZM79.2039 180.416C79.3263 180.484 79.4259 180.585 79.4898 180.709C79.8713 181.552 78.2946 183.492 70.8829 192.615C65.8625 198.794 58.1645 208.27 46.5849 222.929C45.8243 223.892 45.2218 224.668 44.7389 225.289L44.7382 225.29C42.9924 227.54 42.8114 227.773 42.381 227.507C42.2433 227.418 42.1029 227.237 42.2244 226.832C43.4488 222.819 77.5404 180.334 78.8026 180.334C78.9416 180.321 79.0813 180.349 79.2039 180.416ZM54.072 222.707C52.7665 224.304 54.1206 225.728 55.0548 224.362C55.6636 223.268 59.9634 220.889 64.7923 221.061C65.3755 221.083 65.5254 221.289 65.2905 221.901C64.6815 223.473 61.3673 225.523 60.0201 226.356C59.7217 226.541 59.5198 226.665 59.4652 226.712C59.2221 226.879 59.0245 227.105 58.8903 227.367C58.7562 227.63 58.6898 227.922 58.6972 228.217C58.7045 228.512 58.7855 228.8 58.9325 229.057C59.0797 229.312 59.2883 229.527 59.5395 229.682C59.8496 229.91 60.1652 230.13 60.4682 230.342C61.55 231.1 62.472 231.745 62.415 232.175C62.3043 233.011 59.2465 234.281 53.64 236.336C52.7125 236.676 52.8516 237.821 55.0507 237.821C57.4605 237.652 59.7925 236.898 61.8439 235.622C67.7131 232.36 63.8099 229.949 61.7489 228.676C61.322 228.412 60.9741 228.197 60.8085 228.034C60.8484 228.005 60.967 227.942 61.146 227.846C62.3839 227.18 66.5129 224.961 67.4977 222.218C69.4876 216.673 57.3741 218.673 54.072 222.707ZM32.877 208.353C34.47 202.137 39.303 197.698 42.057 203.298C43.9767 207.198 42.4849 212.042 40.8109 211.9C40.6965 211.897 40.5844 211.866 40.4838 211.812C40.3833 211.757 40.2969 211.68 40.2318 211.585C40.1467 211.365 40.1102 211.129 40.1246 210.893C40.139 210.658 40.2041 210.427 40.3155 210.219C41.5332 206.624 39.766 201.977 38.1285 203.43C35.9577 205.359 34.2459 209.876 35.0127 211.622C35.3394 212.368 35.3259 213.474 34.5442 213.718C33.5047 214.046 33.1551 213.232 32.85 212.517C31.9509 210.434 30.2148 210.177 29.205 211.032C28.0119 212.266 27.2981 213.886 27.1921 215.599C27.1921 216.221 27.641 216.603 28.0236 216.929C28.3976 217.247 28.7082 217.512 28.4746 217.894C28.3958 218.014 28.2785 218.104 28.1419 218.149C28.0052 218.194 27.8574 218.191 27.7227 218.141C26.9701 217.976 26.302 217.546 25.8408 216.929C25.3796 216.312 25.1562 215.549 25.2117 214.781C25.1842 213.887 25.3692 212.999 25.7517 212.19C26.6197 209.868 27.7618 208.698 29.5708 208.275C30.6195 208.05 31.7149 208.248 32.6178 208.827L32.742 208.884C32.7778 208.704 32.8229 208.528 32.877 208.353ZM89.4298 189.877C88.7315 188.184 87.5964 189.312 85.9437 190.953C85.2771 191.616 84.5261 192.363 83.6856 193.04C80.9194 195.266 72.6318 203.291 70.083 205.765C61.3714 214.219 61.5456 214.443 61.8102 214.783C61.8429 214.829 61.8861 214.866 61.9361 214.891C61.9861 214.917 62.0416 214.931 62.0977 214.929C63.6219 214.929 88.5226 191.546 89.4015 190.189C89.4312 190.143 89.4493 190.091 89.4541 190.037C89.4591 189.983 89.4508 189.927 89.4298 189.877ZM67.2395 179.679L67.2384 179.681C61.7516 187.512 53.3582 199.491 52.0983 201.788C51.7554 202.423 50.8806 202.25 51.1033 201.321C51.8067 198.424 68.2227 174.036 70.7215 172.048C70.8367 171.916 70.994 171.826 71.1668 171.795C71.3397 171.766 71.5178 171.795 71.6714 171.88C71.825 171.965 71.9448 172.1 72.0108 172.262C72.0767 172.426 72.0848 172.607 72.0337 172.774C71.9986 172.886 69.9823 175.764 67.2395 179.679ZM137.969 134.816C135.378 133.762 132.909 132.431 130.605 130.847C126.61 127.945 123.138 124.384 120.337 120.317C119.895 119.593 119.551 119.008 119.277 118.54C118.571 117.341 118.322 116.916 118.051 116.902C117.902 116.894 117.747 117.01 117.507 117.188L117.46 117.223C103.98 125.272 91.9418 135.519 81.8428 147.54C79.8435 149.97 79.8597 150.031 80.2633 150.723C86.1034 160.777 100.296 171.863 110.343 177.55C111.076 177.972 111.303 177.968 118.595 169.106C126.956 158.949 133.825 147.649 138.991 135.551C138.99 134.927 138.752 134.916 138.443 134.904C138.296 134.897 138.132 134.89 137.969 134.816ZM114.787 152.797C110.476 152.214 107.99 151.143 105.541 147.518C99.5305 138.608 109.337 126.655 119.758 131.43C129.792 136.028 127.874 152.157 114.787 152.797ZM106.51 179.524C107.995 180.353 108.292 180.519 107.847 181.012L107.727 181.141C106.546 182.425 101.857 187.523 100.087 188.021C92.8993 186.838 79.1685 174.973 74.4921 168.366C73.0142 166.542 71.86 164.477 71.0793 162.263L71.0129 162.109L70.9548 161.974C70.6135 161.184 70.5439 161.024 70.7418 160.756C72.5724 158.294 76.4766 153.514 76.5076 153.484C77.2149 152.663 77.6314 153.279 78.8672 155.105C80.7902 157.946 84.6973 163.72 94.7704 171.574C101.044 176.469 104.679 178.501 106.51 179.524ZM145.972 108.714C145.957 108.432 145.883 108.157 145.752 107.907C145.621 107.657 145.439 107.438 145.216 107.265C144.993 107.093 144.735 106.97 144.46 106.906C144.186 106.842 143.901 106.838 143.624 106.894C136.614 107.704 131.49 109.2 121.619 114.283C121.079 114.562 121.108 114.766 122.049 116.173C126.065 122.167 129.995 127.221 138.289 130.828C138.678 130.997 139.017 131.147 139.312 131.276C141.208 132.109 141.345 132.17 141.529 131.841C145.094 125.276 146.447 112.832 145.972 108.714ZM109.162 148.868C107.974 147.922 107.036 146.699 106.429 145.307C105.699 143.601 105.495 141.715 105.844 139.891C106.192 138.067 107.076 136.389 108.383 135.071C109.691 133.752 111.362 132.855 113.182 132.491C115.003 132.128 116.89 132.317 118.603 133.033C120.001 133.628 121.231 134.557 122.187 135.737C123.143 136.917 123.795 138.313 124.087 139.803C124.379 141.293 124.302 142.834 123.862 144.286C123.421 145.74 122.632 147.065 121.563 148.143C120.493 149.221 119.176 150.021 117.726 150.473C116.276 150.926 114.737 151.015 113.244 150.735C111.752 150.456 110.35 149.815 109.162 148.868ZM121.665 143.682C122.124 142.438 122.229 141.091 121.968 139.792C121.744 138.699 121.268 137.671 120.577 136.794C119.887 135.916 119.001 135.213 117.99 134.738C116.979 134.263 115.872 134.03 114.756 134.06C113.639 134.088 112.545 134.377 111.56 134.904C110.394 135.533 109.424 136.473 108.76 137.619C108.097 138.766 107.764 140.076 107.801 141.4C107.837 142.724 108.241 144.014 108.966 145.122C109.692 146.23 110.712 147.116 111.911 147.68C113.111 148.243 114.443 148.462 115.76 148.313C117.076 148.164 118.326 147.651 119.369 146.834C120.411 146.016 121.207 144.924 121.665 143.682ZM118.501 175.55C117.862 175.425 116.996 176.516 115.697 178.154C114.89 179.17 113.915 180.398 112.724 181.676C112.684 181.719 112.695 181.707 112.708 181.692C112.768 181.625 112.879 181.502 108.692 185.996C108.215 186.506 107.841 186.869 107.485 187.215C106.89 187.794 106.345 188.322 105.452 189.407C104.799 190.185 105.108 191.017 105.504 192.083C105.688 192.579 105.89 193.124 106.024 193.738C106.214 194.606 106.348 195.204 106.443 195.628C106.617 196.403 106.66 196.594 106.672 196.787C106.676 196.85 106.677 196.912 106.678 196.997C106.68 197.289 106.686 197.831 106.842 199.492C106.872 201.521 106.436 202.579 106.16 203.25C105.906 203.867 105.788 204.155 106.295 204.567C106.94 205.093 107 205.046 110.609 202.227L110.734 202.13C121.758 193.498 120.843 176.003 118.501 175.55ZM113.849 138.812C115.13 138.156 116.482 137.648 117.878 137.296C118.125 137.249 118.292 137.172 118.424 137.11C118.693 136.983 118.818 136.925 119.191 137.337C119.955 138.214 121.093 139.973 119.988 140.321C116.033 141.572 116.034 141.573 116.376 142.103C116.472 142.252 116.595 142.444 116.665 142.716C116.721 142.923 116.716 143.14 116.65 143.344C116.584 143.547 116.46 143.726 116.293 143.86C115.134 144.614 113.888 145.23 112.584 145.69C111.544 145.954 110.439 145.653 109.596 143.331C109.425 142.859 109.66 142.805 110.352 142.646C110.917 142.517 111.788 142.318 112.99 141.763C114.439 141.098 114.118 140.598 113.791 140.092C113.538 139.698 113.281 139.298 113.849 138.812Z" fill="black"/>
<path d="M244.994 23.7678C226.607 -1.79709 192.891 -6.36144 166.842 8.25769C127.995 30.0561 127.912 93.3752 175.002 112.509C192.564 119.645 216.75 118.231 232.857 105.439C241.623 98.4755 247.561 88.9985 251.036 82.1661C259.562 62.1672 255.304 38.1008 244.994 23.7678ZM253.849 65.5679C253.714 70.8194 249.283 87.2759 236.992 99.0236C206.023 128.62 156.987 114.777 143.671 77.3493C135.927 55.5779 140.745 24.5333 169.759 8.62354C201.78 -8.93454 245.142 7.13044 252.672 45.8538C254.097 52.3225 254.496 58.9756 253.849 65.5679Z" fill="black"/>
<path d="M202.716 76.0506C198.72 74.6115 194.905 77.4789 192.814 80.7554C188.452 87.5931 189.952 97.3604 198.132 96.8663C200.506 96.8663 205.122 92.9904 206.59 87.4487C208.025 82.0338 205.863 77.1833 202.716 76.0506ZM206.051 84.611C205.574 90.416 201.326 95.0249 198.675 95.546C196.956 95.8821 201.24 92.5085 201.936 85.448C202.774 76.866 197.435 78.1148 198.529 77.1212C199.188 76.7417 199.956 76.5987 200.706 76.7162C202.988 76.2221 206.465 79.5822 206.051 84.611Z" fill="black"/>
<path d="M169.081 60.5998C165.571 56.7267 158.874 57.2437 155.496 65.8824C152.403 73.7907 159.654 84.9174 168.409 75.3121C171.425 72.0046 172.286 64.1422 169.081 60.5998ZM166.731 60.2596C165.654 60.6347 164.698 61.2937 163.965 62.1672C162.549 63.7251 161.563 65.6247 161.104 67.6792C161.034 68.1855 160.699 68.6242 160.664 69.1467C160.564 70.3792 160.168 73.5747 161.042 75.2217C161.447 75.9844 161.707 76.8592 162.54 77.3236C162.843 77.4924 162.769 77.8474 162.54 77.8407C161.528 77.966 160.501 77.8095 159.57 77.3884C155.2 74.7991 155.376 67.2985 158.069 63.5577C162.042 57.0912 167.619 59.7061 166.731 60.2596Z" fill="black"/>
<path d="M194.031 28.2471C191.312 26.5245 185.121 27.182 181.763 28.3524C173.754 31.1415 169.56 37.2867 174.35 40.7481C178.427 43.6952 188.167 40.983 192.371 38.1143C197.25 34.7838 197.315 30.3288 194.031 28.2471ZM175.025 37.905C174.485 38.7461 174.684 39.2267 174.167 38.6462C173.188 37.5459 173.656 35.8733 175.156 34.1156C180.296 28.0932 190.666 27.3318 193.59 29.342C194.349 29.8795 194.87 30.6891 195.047 31.6019C195.223 32.5146 195.039 33.4601 194.535 34.2411C194.322 34.5597 193.346 33.743 192.845 33.3353C189.299 30.4422 177.851 33.4986 175.025 37.905Z" fill="black"/>
<path d="M218.132 56.7929C221.487 55.9357 221.727 52.6322 221.977 49.1884C221.625 45.6365 221.33 42.2629 218.375 40.1987C212.578 36.1501 209.844 55.2958 218.132 56.7929ZM216.296 40.9399C217.608 40.3931 219.185 41.947 219.64 43.1539C222.543 50.8489 219.888 55.9789 217.924 55.6873C217.561 55.6319 217.464 55.4969 217.638 55.1716C218.934 52.7416 219.331 47.1647 217.178 42.9014C216.688 41.9321 215.905 41.8322 215.95 41.1856C215.948 40.9426 216.153 40.9993 216.296 40.9399Z" fill="black"/>
<path d="M162.203 27.1429C162.445 24.5779 160.671 23.4263 158.731 23.942C154.546 25.0544 150.403 31.8719 150.825 35.687C151.554 42.2669 160.306 37.2652 162.203 27.1429ZM153.791 35.2253C153.571 35.9176 153.49 36.6467 153.553 37.3705C153.471 37.8511 152.457 37.5055 152.124 36.6752C150.34 32.2675 158.35 22.6514 160.672 25.238C162.312 27.0632 158.706 24.6116 154.386 33.4204C154.185 33.8308 153.956 34.8055 153.791 35.2253Z" fill="black"/>
<path d="M230.688 73.9825C228.778 76.7513 228.034 80.8513 230.625 82.4551C233.744 84.3842 238.984 80.3248 239.38 74.8951C239.74 69.9608 234.057 69.0995 230.688 73.9825ZM236.695 79.1935C234.491 81.8098 232.519 82.0798 232.218 81.9745C231.617 81.7625 231.719 81.3805 232.083 81.2104C233.262 80.4407 234.219 79.3781 234.863 78.127C237.742 73.3736 235.149 71.89 236.502 71.84C238.316 71.7739 239.219 76.2073 236.695 79.1935Z" fill="black"/>
<path d="M244.889 44.8589C242.211 45.3989 239.156 51.1108 240.811 55.9532C243.015 62.4049 249.428 57.5597 249.057 50.5006C248.816 45.8323 246.54 44.5241 244.889 44.8589ZM243.501 57.8473C242.096 57.3505 243.792 56.5729 244.242 54.8773C244.296 54.6748 246.097 49.9484 244.268 47.3173C243.702 46.5073 243.665 46.5545 244.268 46.1738C244.585 46.0265 244.931 45.952 245.281 45.9557C245.629 45.9593 245.973 46.041 246.288 46.1948C246.601 46.3485 246.876 46.5705 247.092 46.8442C247.31 47.1182 247.462 47.437 247.54 47.7776C249.262 54.4561 245.564 58.5682 243.501 57.8473Z" fill="black"/>
<path d="M216.073 14.2665C212.451 16.5615 222.815 25.2596 226.753 22.4003C228.596 21.0624 226.242 18.0924 224.068 16.3806C222.174 14.8875 218.272 12.8733 216.073 14.2665ZM225.743 21.7307C225.203 22.0412 224.956 22.1181 224.002 20.7965C222.182 18.7769 219.899 17.2291 217.349 16.2861C216.877 16.1727 216.243 16.3455 216.404 15.7137C216.615 14.8754 217.035 14.9631 217.912 14.9415C221.823 14.8457 227.947 20.4792 225.743 21.7307Z" fill="black"/>
<path d="M213.491 99.7148C213.265 100.068 213.136 100.473 213.111 100.891C213.088 101.309 213.172 101.727 213.356 102.103C214.413 103.658 217.526 103.77 219.906 103.404C221.599 103.145 221.931 102.744 222.294 101.844C224.119 97.409 215.887 96.9176 213.491 99.7148ZM221.382 100.336C221.156 103.102 220.212 99.4583 215.513 100.942C215.227 101.032 214.744 101.367 214.433 101.432C213.422 101.639 214.433 98.057 219.844 99.1464C220.289 99.2369 221.464 99.8862 221.382 100.336Z" fill="black"/>
<path d="M168.626 93.8748C167.291 95.8363 171.891 102.096 175.205 101.581C180.344 100.777 171.584 89.5305 168.626 93.8748ZM173.987 100.016C173.776 99.5935 173.539 99.1854 173.274 98.7942C172.645 97.7359 171.846 96.789 170.909 95.9916C170.202 95.3085 169.543 95.511 169.585 94.701C169.606 94.2663 169.685 94.1731 170.142 94.161C172.678 94.0786 174.618 96.9501 175.703 99.5205C176.121 100.507 174.383 101.139 173.987 100.016Z" fill="black"/>
<path d="M194.599 11.2629C203.814 11.9244 199.806 2.2286 191.865 7.06167C189.57 8.45892 189.701 10.9119 194.599 11.2629ZM198.572 7.61787C199.07 8.05527 198.799 8.54802 198.378 8.96787C197.601 9.74142 197.879 8.93277 196.393 8.79642C192.901 8.47512 193.547 10.1977 192.652 9.87642C188.639 8.43732 196.2 5.52537 198.572 7.61382V7.61787Z" fill="black"/>
<path d="M196.038 54.5169C193.346 55.7603 193.28 56.7201 192.857 58.1525C192.622 58.9476 193.141 59.5847 193.675 60.1544C194.04 60.5418 194.606 60.5513 195.352 60.6809C196.145 60.7006 196.932 60.544 197.657 60.2225C198.382 59.9011 199.027 59.4227 199.544 58.8219C200.523 58.047 201.15 56.1059 200.403 55.2203C199.858 54.6325 199.132 54.2441 198.341 54.1165C197.55 53.9891 196.74 54.13 196.038 54.5169ZM199.482 56.3246C199.482 58.0148 198.094 56.2947 196.038 57.7743C194.897 58.5965 194.742 59.3945 194.384 59.2041C193.709 58.8558 193.709 56.8563 196.038 55.644C198.129 54.5546 199.71 55.3742 199.482 56.3246Z" fill="black"/>
</svg>
